<!DOCTYPE svg  PUBLIC '-//W3C//DTD SVG 1.1//EN'  'http://www.w3.org/Graphics/SVG/1.1/DTD/svg11.dtd' [<!ENTITY ns_svg "http://www.w3.org/2000/svg"><!ENTITY ns_xlink "http://www.w3.org/1999/xlink">]><svg xmlns="http://www.w3.org/2000/svg" height="833.4" width="1050" xmlns:xlink="http://www.w3.org/1999/xlink" viewBox="0 0 1050 833.4"><style>.st0{display:inline;fill:#383838;stroke:#383838;stroke-width:2}.st1{fill:#15afff}.st2{opacity:.2118}.st3{fill:#ff3988}.st4{fill:#fff47b}.st5{fill:#fff}.st6{fill:#383838;stroke:#383838;stroke-width:2}.st7{display:inline}.st7,.st8{fill:#383838}.st9{display:none}</style><image xlink:href="logo3.png" transform="scale(3.2813)" height="254" width="320" id="layer_1" class="st9"/><g id="layer_3"><g class="st9"><path class="st7" d="M68 789c-9.8-14.5-18.4-23.7-24.7-31-4.3 15.4-12.1 29.5-29.9 45.2l-5.2-8c19-14.6 27.7-33.3 30.2-50.4h-27v-8h27.9c.4-5.1.4-9.7.4-14.2v-17.2H28c-3.1 7.4-5.3 12.1-13 20.7L9.1 719c11.7-12.1 17.7-31.3 18.9-40.2l8.1 1.3s-2.3 12.4-5.1 17.2h37.1v8.1H48.3v16.4c0 4.3 0 9.6-.1 15h25.1v8H47.4c-.3 2.9-1.1 6.4-1.1 6.4 5.9 5.6 17 17.2 27.5 29.9L68 789zm50.6 10.2v-13.8h-30v13.8h-8.5V693.1H127v106.3l-8.4-.2zm0-98h-30v75.9h29.9v-75.9zM173.3 790.2v12.9H165V696.9h14.1c2-3.5 5.5-10 7.8-18.4l7.8 2.4c-1.9 6.1-4.7 11.8-7 16h22.9v93.2h-37.3zm28.9-85.2h-29v33.6h29V705zm0 41.8h-29v35.4h29v-35.4zm34.3 46.6h6.1c25.3 0 27.7-2 27.7-64.1V705h-35.9c-4 7.8-9.8 16.9-18.1 24.6l-4.9-7.6c16-12.8 21.8-33.6 23.5-43.2l8 2s-1.9 8.4-4.9 16.1h40.6v32.3c0 65.8-4.1 72.6-39 72.6l-3.1-8.4zm8.7-29.3c-6.1-13.3-12.9-24.6-15.8-29.5l7-4.1c4.9 8.8 9.7 16.5 16.2 29.4l-7.4 4.2zM330.7 803.1v-79.9c-4.5 20.2-7.3 31.7-14 45.6l-5.6-8c7.4-11.3 13.4-31.4 18-48.7h-14.4v-7.8h16v-25.5h8.2v25.5h12.4v7.8H340c5.1 11.6 9.3 18.5 14 24.9l-4.8 8c-4.7-9.3-7.4-16.5-10.2-25.3v83.4h-8.3zm104.9-21.3c-4.1 14.9-9.2 21.3-14.5 21.3-4.5 0-10.5-4.5-17.4-18.4-10.2 8.6-23.1 15.8-27.8 18.5l-5.1-6.7c4-1.9 19.4-9.2 29.7-18.8-2.5-6.4-4.9-15.4-7.3-26.7h-19c-.3 4.4-.5 7.3-1.3 11.4 8.4 5.9 16.2 13 16.2 13l-4.9 7.4s-6.9-10.1-13.3-14c-5.5 19.7-16.1 30.3-16.1 30.3l-5.5-7.7s16-13.2 17.4-40.6h-13.4v-7.7h38.2c-1.9-16.4-3.9-36.8-4.5-63.8l7.3-.4c0 25.3 2 44.7 4.5 64.2h18.4c-1.9-2.3-4.7-4.8-8.4-7.4l5.3-4c3.9 3.3 8.4 7.8 8.4 7.8l-4.4 3.6h14.4v7.7h-31.8c1.7 9.4 4 15.7 6 21 4.9-5.1 10.4-10.9 13.3-18l6.7 3.9c-4.8 8.1-10.6 15.3-17 21.4 4.5 8.4 7.8 14.2 11.2 14.2 2.9 0 5.3-5.6 8.6-20.3l6.1 8.8zm-54.1-44s-1.1-4.4-1.9-8.1c-6.5 1.5-14.8 2.3-26.2 3.3l-2.1-7.4c1.1 0 5.9.1 8.2.1 3.3-3.9 6.6-8.6 9.2-12.8-5.2-4.4-11.7-9.7-18.5-14l4-5.3c2.1 1.6 4.9 3.6 6.1 4.7 3.6-5.5 6.5-12.2 8-19.7l6.3 3.5c-3.5 9.2-6.1 15.6-9.6 20 1.9 1.5 5.1 4.3 6.4 5.6 2.1-3.6 4-7.7 5.7-12.5l5.5 4c-4.3 8.8-9 17.6-15.4 26.2 3.6-.3 6.9-.7 11.2-1.6-.5-2.1-1.3-4.7-2-6.6l6.1-1.9c2.8 11 5.1 20 5.1 20l-6.1 2.5zm47.2 0s-.8-4.3-2-8.1c-7.2 1.3-15.8 2.4-26.2 2.9l-2.1-7c1.2 0 5.2.1 7.4.1 3.3-3.9 6.4-8.4 8.9-12.5-4.5-4.4-9.6-8.8-17-14l3.7-5.6c1.7 1.5 3.7 3.2 5.3 4.7 3.6-5.5 7.2-12.2 8.6-19.7l6.4 3.5c-3.5 8-7.2 15.6-10.6 20 1.7 1.5 4.4 4 6.3 5.6 2.3-3.7 4.7-8.4 6.4-12.5l5.3 4c-4.9 9.8-10.4 19.2-16.1 26.2 4-.1 8.1-.7 12.5-1.6-.5-2-1.5-4.9-2.1-6.6l6.1-1.9c2.9 10.5 5.2 20 5.2 20l-6 2.5zM481.5 803.1v-79.9c-3.7 19.7-7 31.5-13.2 45.6l-5.6-8c7.2-12.5 13.3-31.8 17.3-48.7h-14.2v-7.8h15.7v-25.5h8.4v25.5H505v7.8h-14c4.9 12.1 9.3 22.1 16 32.6l-4.9 8c-5.7-12.5-8.6-21-12.1-33v83.4h-8.5zm96.8-22.5v8.6c0 8-.8 13.7-21.5 13.7l-3.2-7.6c15.3 0 16.5-.5 16.5-5.3v-9.4h-50.8v22.5H511v-22.5h-9.3v-6.9h9.3v-35.9h28.9v-10h-36.6v-6.6h20.6V711h-13.7v-6.4h13.7v-9.2h-18.5v-6.9h18.5v-9.7h8.2v9.7h23.7v-9.7h8.2v9.7h20.1v6.9H564v9.2h16.1v6.4H564v10.2h23.1v6.6H548v10h30.2v35.9h8.8v6.9h-8.7zm-38.4-35.9h-20.6v10.9h20.6v-10.9zm0 17h-20.6v12h20.6v-12zm16-66.4h-23.7v9.2h23.7v-9.2zm0 15.6h-23.7v10.2h23.7v-10.2zm14.2 33.8h-21.9v10.9h21.9v-10.9zm0 17h-21.9v12h21.9v-12zM635.1 784.8v12.8H627v-59.7c-2.5 9.7-4.5 14.4-7.6 21.7l-5.1-9.2c10.1-16.5 17-38.3 20.1-54.9h-16.9v-8.1h47.9v8.1h-23.3c-2 11.6-4.3 19.6-8 29h27.5v60.4h-26.5zm18.5-52.2h-18.5v44.2h18.5v-44.2zm60.9 70.3v-61.2h-21.3c-.7 20.7-4.9 42.8-23.5 60.8l-5.6-7.2c17.8-16.4 20.3-36.7 20.9-53.6h-16.2v-8H685v-39.6h-13.7v-8h64v8h-12.5v39.6h16.1v8h-16.1v61.2h-8.3zm0-108.8h-21.1v39.6h21.1v-39.6zM857.4 797.7c-6 0-11.3-3.6-11.3-9.8 0-.8 0-1.5.1-2.1l6.1-37.5h-30.9c-3.7 22.3-15.6 43-49.3 54.7l-6-7.7c31.1-8.4 44.6-29.8 47.1-46.9h-34v-8h35v-15.2h8.2v15.2h39.1l-6.8 43c-.1.7-.1 1.5-.1 2 0 2.7 1.2 4.5 6.4 4.5h9.6c8.6 0 9.4-4.7 11.4-27l8.2 4.4c-2.4 23.1-5.5 30.6-16.1 30.6h-16.7zm19.5-86.5v-14.5h-97.1v17.4h-8.2v-25.4h52.5v-10h8.2v10h52.8v22.5h-8.2zm-59.6-6.4c-6.4 12.4-18.1 20.7-37.6 25.8l-4.7-7.7c19.8-3.7 29.3-10.4 35.6-22.3l6.7 4.2zm32.6 23.1c-8.6 0-11.6-3.1-11.6-10.2v-15.2h8.2v13.8c0 3.5.5 3.6 6.4 3.6h12.6c3.5 0 6-3.1 6.9-10.1l7.8 4.7c-1.9 8-5.6 13.4-11.6 13.4h-18.7zM919.3 796.5v-7.8h56.1v-16.8h-46.2v-8h46.2v-16.4c-11.4.5-22.5.7-34.6.7h-12.6l-1.5-8.2c7.4 0 14.5.1 21 .1 7.2-7.2 13-14.1 15.8-20.7h-25.8v-8.1h84.5v8.1h-49.3c-5.5 8.4-10.1 14.6-16.4 21h4.4c18.8 0 36-.8 50.5-2.8-4.9-4.4-11.3-10.2-11.3-10.2l6.3-4.4c7 7 17.6 17.6 26.7 26.2l-5.7 5.9c-3.6-4-7-7.6-10.2-10.9-5.1.7-16.2 2-33 3.1V764h46v8h-46v16.8h56v8l-120.9-.3zm110.4-84.1v-14H930v14h-8.4v-22.1h54.1v-11.4h8.2v11.4h54.1v22.1h-8.3z"/></g><g class="st9"><path class="st0" d="M59.3 620c0 2.6-.4 5-1.2 7.1s-1.9 3.9-3.3 5.4-3.1 2.6-5.1 3.4-4.2 1.2-6.6 1.2H30.8v-34h12.4c2.4 0 4.6.4 6.6 1.2s3.7 1.9 5.1 3.4 2.5 3.3 3.3 5.4c.8 2 1.1 4.3 1.1 6.9zm-2.5 0c0-2.4-.3-4.5-1-6.3s-1.6-3.4-2.8-4.7c-1.2-1.3-2.6-2.3-4.3-2.9s-3.5-1-5.6-1h-9.9v30h9.9c2 0 3.9-.3 5.6-1s3.1-1.6 4.3-2.9 2.1-2.8 2.8-4.7 1-4.1 1-6.5zM77.3 613.1c1.6 0 3.1.3 4.4.9s2.4 1.4 3.2 2.5c.9 1.1 1.5 2.3 2 3.8s.7 3.2.7 5c0 1.8-.2 3.5-.7 5-.4 1.5-1.1 2.7-2 3.8s-1.9 1.9-3.2 2.4-2.7.9-4.4.9c-1.7 0-3.1-.3-4.4-.9s-2.3-1.4-3.2-2.4c-.9-1.1-1.5-2.3-2-3.8-.4-1.5-.7-3.1-.7-5 0-1.8.2-3.5.7-5s1.1-2.8 2-3.8c.9-1.1 1.9-1.9 3.2-2.5 1.2-.6 2.7-.9 4.4-.9zm0 23.7c1.6 0 3-.3 4.2-.8s2.2-1.3 3-2.4 1.4-2.2 1.8-3.7c.4-1.4.6-3 .6-4.7s-.2-3.3-.6-4.7-1-2.7-1.8-3.7-1.8-1.8-3-2.4-2.6-.9-4.2-.9-3 .3-4.2.9-2.2 1.4-3 2.4c-.8 1-1.4 2.3-1.8 3.7s-.6 3-.6 4.7c0 1.7.2 3.3.6 4.7s1 2.6 1.8 3.7 1.8 1.8 3 2.4 2.6.8 4.2.8zM109.1 615.6c-.1.1-.1.1-.2.1s-.3-.1-.6-.3c-.2-.2-.6-.5-1.1-.7s-1.1-.5-1.8-.7c-.7-.2-1.6-.3-2.7-.3-1 0-1.9.2-2.7.5s-1.5.7-2.1 1.2-1.1 1.1-1.4 1.7-.5 1.3-.5 2.1.2 1.6.6 2.1c.4.6.9 1 1.6 1.4.6.4 1.4.7 2.2 1s1.7.5 2.5.8 1.7.5 2.5.8c.8.3 1.6.7 2.2 1.1s1.2 1 1.6 1.6.6 1.5.6 2.4c0 1-.2 1.9-.5 2.7s-.8 1.6-1.5 2.2-1.5 1.1-2.4 1.5c-1 .4-2 .6-3.3.6-.8 0-1.6-.1-2.3-.2s-1.3-.3-1.8-.6-1.1-.5-1.6-.9c-.5-.3-1-.7-1.5-1.2l.1-.1.1-.1h.2c.1 0 .3.1.6.4s.7.6 1.2.9 1.2.6 2 .9 1.8.4 2.9.4c1.2 0 2.2-.2 3.1-.5s1.6-.8 2.2-1.4 1.1-1.3 1.4-2 .5-1.6.5-2.5c0-.9-.2-1.7-.6-2.3s-.9-1.1-1.6-1.5c-.6-.4-1.4-.8-2.2-1s-1.7-.5-2.5-.8c-.9-.3-1.7-.5-2.5-.8s-1.6-.6-2.2-1.1c-.6-.4-1.2-.9-1.6-1.6-.4-.6-.6-1.4-.6-2.3 0-.8.2-1.5.5-2.2.4-.7.8-1.3 1.5-1.9.6-.6 1.4-1 2.3-1.3s1.9-.5 2.9-.5c1.3 0 2.5.2 3.5.5s2 1 2.9 1.8l.1.1zM119.5 637v-34.6h.6v15.9c.5-.8 1.2-1.5 1.8-2.2s1.4-1.2 2.2-1.7c.8-.5 1.6-.8 2.5-1.1.9-.2 1.8-.4 2.7-.4 2.6 0 4.6.8 5.8 2.3s1.9 3.7 1.9 6.5V637h-.6v-15.1c0-1.3-.1-2.5-.4-3.5s-.7-1.9-1.3-2.6-1.4-1.3-2.3-1.6-2-.6-3.2-.6c-1.8 0-3.5.5-5.1 1.5s-2.9 2.3-4.1 4.1V637h-.5zM149.6 604.8c0 .3-.1.6-.4.9s-.6.4-.9.4c-.4 0-.7-.1-.9-.4-.3-.3-.4-.6-.4-.9 0-.4.1-.7.4-.9.3-.3.6-.4.9-.4s.6.1.9.4c.3.2.4.5.4.9zm-1 8.7V637h-.6v-23.5h.6zM172.8 615.6c-.1.1-.1.1-.2.1s-.3-.1-.6-.3c-.2-.2-.6-.5-1.1-.7s-1.1-.5-1.8-.7c-.7-.2-1.6-.3-2.7-.3-1 0-1.9.2-2.7.5s-1.5.7-2.1 1.2-1.1 1.1-1.4 1.7-.5 1.3-.5 2.1.2 1.6.6 2.1c.4.6.9 1 1.6 1.4.6.4 1.4.7 2.2 1s1.7.5 2.5.8 1.7.5 2.5.8c.8.3 1.6.7 2.2 1.1s1.2 1 1.6 1.6.6 1.5.6 2.4c0 1-.2 1.9-.5 2.7s-.8 1.6-1.5 2.2-1.5 1.1-2.4 1.5c-1 .4-2 .6-3.3.6-.8 0-1.6-.1-2.3-.2s-1.3-.3-1.8-.6-1.1-.5-1.6-.9c-.5-.3-1-.7-1.5-1.2l.1-.1.1-.1h.2c.1 0 .3.1.6.4s.7.6 1.2.9 1.2.6 2 .9 1.8.4 2.9.4c1.2 0 2.2-.2 3.1-.5s1.6-.8 2.2-1.4 1.1-1.3 1.4-2 .5-1.6.5-2.5c0-.9-.2-1.7-.6-2.3s-.9-1.1-1.6-1.5c-.6-.4-1.4-.8-2.2-1s-1.7-.5-2.5-.8c-.9-.3-1.7-.5-2.5-.8s-1.6-.6-2.2-1.1c-.6-.4-1.2-.9-1.6-1.6-.4-.6-.6-1.4-.6-2.3 0-.8.2-1.5.5-2.2.4-.7.8-1.3 1.5-1.9.6-.6 1.4-1 2.3-1.3s1.9-.5 2.9-.5c1.3 0 2.5.2 3.5.5s2 1 2.9 1.8l.1.1zM183.2 637v-34.6h.6v15.9c.5-.8 1.2-1.5 1.8-2.2s1.4-1.2 2.2-1.7c.8-.5 1.6-.8 2.5-1.1.9-.2 1.8-.4 2.7-.4 2.6 0 4.6.8 5.8 2.3s1.9 3.7 1.9 6.5V637h-.6v-15.1c0-1.3-.1-2.5-.4-3.5s-.7-1.9-1.3-2.6-1.4-1.3-2.3-1.6-2-.6-3.2-.6c-1.8 0-3.5.5-5.1 1.5s-2.9 2.3-4.1 4.1V637h-.5zM225.5 637c-.2 0-.3-.1-.3-.4l-.1-3.8c-.7.7-1.3 1.3-2 1.9s-1.4 1-2.1 1.4c-.8.4-1.6.7-2.4.9s-1.8.3-2.9.3c-.7 0-1.4-.1-2.1-.3s-1.4-.6-1.9-1c-.6-.5-1-1.1-1.4-1.8s-.5-1.7-.5-2.7c0-1.1.3-2 .9-2.8s1.6-1.6 2.8-2.1 2.9-1.1 4.8-1.4 4.2-.5 6.9-.6v-3c0-1.2-.1-2.3-.4-3.3s-.7-1.8-1.2-2.5-1.2-1.2-2-1.6-1.7-.5-2.8-.5c-.8 0-1.6.1-2.3.3s-1.3.4-1.8.7c-.5.3-1 .5-1.4.8s-.7.6-1 .8-.5.5-.7.7c-.2.2-.3.3-.4.3s-.1 0-.2-.1l-.1-.1c1.2-1.2 2.3-2.1 3.6-2.8s2.7-1 4.3-1c1.2 0 2.2.2 3.1.6s1.6.9 2.2 1.7 1 1.6 1.3 2.6c.3 1 .4 2.2.4 3.5l-.3 15.3zm-9.9-.1c1.1 0 2.1-.1 3-.4s1.7-.6 2.5-1 1.5-.9 2.1-1.5c.6-.6 1.3-1.2 1.9-1.8V625c-5 .2-8.8.8-11.2 1.9s-3.7 2.6-3.7 4.7c0 .9.2 1.8.5 2.4s.7 1.2 1.2 1.7 1.1.8 1.7 1 1.3.2 2 .2zM263.3 637h-2.5v-34h2.5v34zM275.9 637v-23.5h.2c.2 0 .3.1.3.4l.1 4.5c.5-.8 1.2-1.5 1.8-2.2s1.4-1.2 2.2-1.7c.8-.5 1.6-.8 2.5-1.1.9-.2 1.8-.4 2.7-.4 2.6 0 4.6.8 5.9 2.3s1.9 3.7 1.9 6.5V637h-.6v-15.1c0-1.3-.1-2.5-.4-3.5s-.7-1.9-1.3-2.6-1.4-1.3-2.3-1.6-2-.6-3.2-.6c-1.8 0-3.5.5-5.1 1.5s-2.9 2.3-4.1 4.1V637h-.6zM309.4 637.4c-1.4 0-2.5-.4-3.2-1.1-.8-.8-1.2-2-1.2-3.7V615h-3.9c-.2 0-.3-.1-.3-.2v-.1l4.2-.1.2-9.5c0-.1 0-.2.1-.2s.1-.1.2-.1h.1v9.8h8v.5h-8v17.6c0 .8.1 1.5.3 2 .2.6.5 1 .8 1.3.4.3.8.6 1.2.8s1 .2 1.5.2c.7 0 1.3-.1 1.8-.3s.9-.4 1.3-.7.6-.5.9-.7c.2-.2.4-.3.5-.3s.1 0 .2.1l.1.1c-.2.3-.5.6-.9.9-.3.3-.7.5-1.1.7s-.8.4-1.3.5c-.6 0-1 .1-1.5.1zM330.9 613.1c1.2 0 2.4.2 3.5.7 1.1.4 2 1.1 2.8 2s1.4 1.9 1.9 3.2.7 2.7.7 4.3c0 .1 0 .1-.1.2-.1 0-.1.1-.2.1h-18.2c0 .2-.1.4-.1.6v.6c0 2 .2 3.7.7 5.2s1.1 2.8 2 3.8c.9 1 1.9 1.8 3.1 2.3s2.6.8 4 .8c1.3 0 2.5-.1 3.4-.4s1.7-.6 2.4-1 1.1-.7 1.4-1c.3-.3.5-.4.6-.4s.1 0 .2.1l.1.1c-.3.3-.7.7-1.2 1s-1.2.7-1.9 1c-.7.3-1.5.5-2.4.7s-1.8.3-2.7.3c-1.6 0-3.1-.3-4.3-.9s-2.4-1.4-3.3-2.5c-.9-1.1-1.6-2.4-2.1-3.9-.5-1.6-.7-3.3-.7-5.3 0-1.7.2-3.3.7-4.7s1.1-2.7 2-3.7 2-1.8 3.2-2.4c1.5-.5 2.9-.8 4.5-.8zm0 .5c-1.4 0-2.7.2-3.8.7s-2.1 1.1-2.9 1.9-1.5 1.8-2 3-.8 2.5-.9 3.9h17.9c0-1.5-.2-2.9-.6-4-.4-1.2-1-2.2-1.7-3s-1.6-1.4-2.6-1.8-2.2-.7-3.4-.7zM350.2 602.5V637h-.6v-34.6h.6zM363.3 602.5V637h-.6v-34.6h.6zM377.4 604.8c0 .3-.1.6-.4.9s-.6.4-.9.4c-.4 0-.7-.1-.9-.4-.3-.3-.4-.6-.4-.9 0-.4.1-.7.4-.9.3-.3.6-.4.9-.4s.6.1.9.4c.3.2.4.5.4.9zm-1.1 8.7V637h-.6v-23.5h.6zM395.6 613.1c1 0 2 .1 2.8.4.9.3 1.6.6 2.3 1.1h5.7v.1c0 .1 0 .2-.1.2s-.2.1-.3.1l-4.7.1c.7.7 1.3 1.5 1.6 2.4s.6 1.9.6 3-.2 2.1-.6 3.1-.9 1.7-1.6 2.4-1.5 1.2-2.5 1.5c-1 .4-2.1.5-3.3.5-1.6 0-2.9-.3-4.1-.9-.4.2-.8.5-1.1.8l-.9.9s-.4.6-.6 1c-.1.3-.2.7-.2 1 0 .8.2 1.4.7 1.8s1.2.7 2 .9 1.7.3 2.8.4c1 .1 2.1.1 3.2.2 1.1 0 2.2.1 3.2.2s2 .3 2.8.7c.8.3 1.5.8 2 1.4s.7 1.4.7 2.4c0 .9-.2 1.8-.7 2.7s-1.2 1.6-2.1 2.3-2 1.2-3.2 1.6-2.7.6-4.2.6c-1.6 0-3-.2-4.2-.5s-2.2-.8-3.1-1.4c-.8-.6-1.5-1.2-1.9-2s-.6-1.6-.6-2.4c0-1.3.5-2.5 1.4-3.5s2.1-1.7 3.7-2.2c-.9-.2-1.6-.6-2.1-1.1s-.8-1.2-.8-2.1c0-.3.1-.7.2-1s.3-.7.6-1 .5-.7.9-1c.3-.3.7-.6 1.2-.8-1.1-.6-1.9-1.5-2.5-2.6s-.9-2.3-.9-3.8c0-1.1.2-2.1.6-3s.9-1.7 1.6-2.4 1.5-1.2 2.5-1.5c.8-.4 1.9-.6 3.2-.6zm9.9 25.8c0-.9-.2-1.6-.7-2.1-.4-.5-1-1-1.8-1.2-.7-.3-1.6-.5-2.5-.6s-1.9-.2-3-.3c-1-.1-2-.1-3.1-.2s-1.9-.2-2.8-.3c-.8.3-1.5.6-2.1.9-.6.4-1.2.8-1.6 1.2-.5.5-.8 1-1.1 1.5s-.4 1.2-.4 1.8c0 .8.2 1.6.6 2.3s1 1.3 1.8 1.9c.8.5 1.8.9 2.9 1.2s2.4.5 3.8.5c1.3 0 2.5-.2 3.7-.5s2.2-.8 3.1-1.4 1.6-1.3 2.2-2.1c.8-.7 1-1.6 1-2.6zm-9.9-11.3c1.2 0 2.2-.2 3.1-.5s1.7-.8 2.3-1.4 1.1-1.4 1.5-2.2.5-1.8.5-2.9-.2-2-.5-2.9-.8-1.6-1.5-2.2c-.6-.6-1.4-1.1-2.3-1.4s-1.9-.5-3.1-.5-2.2.2-3.1.5c-.9.3-1.7.8-2.3 1.4s-1.1 1.4-1.5 2.2-.5 1.8-.5 2.9.2 2 .5 2.9.8 1.6 1.5 2.2c.6.6 1.4 1.1 2.3 1.4s1.9.5 3.1.5zM422.8 613.1c1.2 0 2.4.2 3.5.7 1.1.4 2 1.1 2.8 2s1.4 1.9 1.9 3.2.7 2.7.7 4.3c0 .1 0 .1-.1.2-.1 0-.1.1-.2.1h-18.2c0 .2-.1.4-.1.6v.6c0 2 .2 3.7.7 5.2s1.1 2.8 2 3.8c.9 1 1.9 1.8 3.1 2.3s2.6.8 4 .8c1.3 0 2.5-.1 3.4-.4s1.7-.6 2.4-1 1.1-.7 1.4-1c.3-.3.5-.4.6-.4s.1 0 .2.1l.1.1c-.3.3-.7.7-1.2 1s-1.2.7-1.9 1c-.7.3-1.5.5-2.4.7s-1.8.3-2.7.3c-1.6 0-3.1-.3-4.3-.9s-2.4-1.4-3.3-2.5c-.9-1.1-1.6-2.4-2.1-3.9-.5-1.6-.7-3.3-.7-5.3 0-1.7.2-3.3.7-4.7s1.1-2.7 2-3.7 2-1.8 3.2-2.4c1.4-.5 2.9-.8 4.5-.8zm0 .5c-1.4 0-2.7.2-3.8.7s-2.1 1.1-2.9 1.9-1.5 1.8-2 3-.8 2.5-.9 3.9H431c0-1.5-.2-2.9-.6-4-.4-1.2-1-2.2-1.7-3s-1.6-1.4-2.6-1.8-2.2-.7-3.3-.7zM440.7 637v-23.5h.2c.2 0 .3.1.3.4l.1 4.5c.5-.8 1.2-1.5 1.8-2.2s1.4-1.2 2.2-1.7c.8-.5 1.6-.8 2.5-1.1.9-.2 1.8-.4 2.7-.4 2.6 0 4.6.8 5.9 2.3s1.9 3.7 1.9 6.5V637h-.6v-15.1c0-1.3-.1-2.5-.4-3.5s-.7-1.9-1.3-2.6-1.4-1.3-2.3-1.6-2-.6-3.2-.6c-1.8 0-3.5.5-5.1 1.5s-2.9 2.3-4.1 4.1V637h-.6zM474.3 637.4c-1.4 0-2.5-.4-3.2-1.1-.8-.8-1.2-2-1.2-3.7V615H466c-.2 0-.3-.1-.3-.2v-.1l4.2-.1.2-9.5c0-.1 0-.2.1-.2s.1-.1.2-.1h.1v9.8h8v.5h-8v17.6c0 .8.1 1.5.3 2 .2.6.5 1 .8 1.3.4.3.8.6 1.2.8s1 .2 1.5.2c.7 0 1.3-.1 1.8-.3s.9-.4 1.3-.7.6-.5.9-.7c.2-.2.4-.3.5-.3s.1 0 .2.1l.1.1c-.2.3-.5.6-.9.9-.3.3-.7.5-1.1.7s-.8.4-1.3.5c-.6 0-1.1.1-1.5.1zM528.4 628.6c.1-.3.2-.5.3-.8.1-.2.2-.5.3-.7l13.3-23.6c.1-.2.3-.3.4-.4s.3-.1.5-.1h1.7v34h-2.2v-28.9c0-.4 0-.9.1-1.3l-13.4 23.7c-.2.4-.5.6-1 .6h-.4c-.4 0-.7-.2-1-.6l-13.7-23.8c0 .5.1.9.1 1.3v29h-2.1v-34h1.7c.2 0 .4 0 .5.1.1 0 .3.2.4.4l13.7 23.6c.4.5.6 1 .8 1.5zM565.1 613.1c1.2 0 2.4.2 3.5.7 1.1.4 2 1.1 2.8 2s1.4 1.9 1.9 3.2c.4 1.3.7 2.7.7 4.3 0 .1 0 .1-.1.2-.1 0-.1.1-.2.1h-18.2c0 .2-.1.4-.1.6v.6c0 2 .2 3.7.7 5.2s1.1 2.8 2 3.8c.9 1 1.9 1.8 3.1 2.3s2.6.8 4 .8c1.3 0 2.5-.1 3.4-.4s1.7-.6 2.4-1 1.1-.7 1.4-1c.3-.3.5-.4.6-.4s.1 0 .2.1l.1.1c-.3.3-.7.7-1.2 1s-1.2.7-1.9 1-1.5.5-2.4.7-1.8.3-2.7.3c-1.6 0-3.1-.3-4.3-.9-1.3-.6-2.4-1.4-3.3-2.5s-1.6-2.4-2.1-3.9c-.5-1.6-.7-3.3-.7-5.3 0-1.7.2-3.3.7-4.7s1.1-2.7 2-3.7 2-1.8 3.2-2.4c1.4-.5 2.9-.8 4.5-.8zm0 .5c-1.4 0-2.7.2-3.8.7s-2.1 1.1-2.9 1.9-1.5 1.8-2 3-.8 2.5-.9 3.9h17.9c0-1.5-.2-2.9-.6-4s-1-2.2-1.7-3c-.7-.8-1.6-1.4-2.6-1.8s-2.2-.7-3.4-.7zM598 615.7c-.1.1-.1.1-.2.1s-.3-.1-.5-.3-.6-.5-1.2-.8-1.1-.5-1.9-.8c-.8-.2-1.7-.3-2.7-.3-1.5 0-2.9.3-4.1.8s-2.2 1.3-3 2.3-1.5 2.2-1.9 3.7c-.4 1.4-.7 3.1-.7 4.9 0 1.9.2 3.5.7 4.9.4 1.4 1.1 2.6 1.9 3.6s1.8 1.7 2.9 2.2 2.4.8 3.8.8c1.2 0 2.3-.1 3.2-.4s1.6-.6 2.1-1c.6-.4 1-.7 1.3-1s.5-.4.6-.4c.1 0 .1 0 .2.1l.1.1c-.2.4-.6.7-1.1 1.1s-1 .7-1.7 1c-.6.3-1.4.5-2.2.7s-1.7.3-2.6.3c-1.5 0-2.9-.3-4.1-.8s-2.3-1.3-3.1-2.4c-.9-1-1.5-2.3-2-3.8s-.7-3.2-.7-5.1c0-1.8.2-3.5.7-5s1.1-2.8 2-3.8c.9-1.1 2-1.9 3.2-2.5 1.3-.6 2.7-.9 4.3-.9 1.4 0 2.7.2 3.8.7s2.1 1 2.9 1.8v.2zM606.8 637v-34.6h.6v15.9c.5-.8 1.2-1.5 1.8-2.2.7-.6 1.4-1.2 2.2-1.7s1.6-.8 2.5-1.1 1.8-.4 2.7-.4c2.6 0 4.6.8 5.8 2.3s1.9 3.7 1.9 6.5V637h-.6v-15.1c0-1.3-.1-2.5-.4-3.5s-.7-1.9-1.3-2.6-1.4-1.3-2.3-1.6-2-.6-3.2-.6c-1.8 0-3.5.5-5.1 1.5s-2.9 2.3-4.1 4.1V637h-.5zM649.1 637c-.2 0-.3-.1-.3-.4l-.1-3.8c-.7.7-1.3 1.3-2 1.9s-1.4 1-2.1 1.4c-.8.4-1.6.7-2.4.9s-1.8.3-2.9.3c-.7 0-1.4-.1-2.1-.3s-1.4-.6-1.9-1c-.6-.5-1-1.1-1.4-1.8s-.5-1.7-.5-2.7c0-1.1.3-2 .9-2.8s1.6-1.6 2.8-2.1c1.3-.6 2.9-1.1 4.8-1.4s4.2-.5 6.9-.6v-3c0-1.2-.1-2.3-.4-3.3s-.7-1.8-1.2-2.5-1.2-1.2-2-1.6-1.7-.5-2.8-.5c-.8 0-1.6.1-2.3.3s-1.3.4-1.8.7c-.5.3-1 .5-1.4.8s-.7.6-1 .8l-.7.7c-.2.2-.3.3-.4.3s-.1 0-.2-.1l-.1-.1c1.2-1.2 2.3-2.1 3.6-2.8s2.7-1 4.3-1c1.2 0 2.2.2 3.1.6s1.6.9 2.2 1.7 1 1.6 1.3 2.6c.3 1 .4 2.2.4 3.5l-.3 15.3zm-9.9-.1c1.1 0 2.1-.1 3-.4s1.7-.6 2.5-1 1.5-.9 2.1-1.5 1.3-1.2 1.9-1.8V625c-5 .2-8.8.8-11.2 1.9s-3.7 2.6-3.7 4.7c0 .9.2 1.8.5 2.4s.7 1.2 1.2 1.7 1.1.8 1.7 1c.6.1 1.3.2 2 .2zM659.5 637v-23.5h.2c.2 0 .3.1.3.4l.1 4.5c.5-.8 1.2-1.5 1.8-2.2.7-.7 1.4-1.2 2.2-1.7s1.6-.8 2.5-1.1c.9-.2 1.8-.4 2.7-.4 2.6 0 4.6.8 5.9 2.3 1.3 1.6 1.9 3.7 1.9 6.5V637h-.6v-15.1c0-1.3-.1-2.5-.4-3.5s-.7-1.9-1.3-2.6-1.4-1.3-2.3-1.6-2-.6-3.2-.6c-1.8 0-3.5.5-5.1 1.5s-2.9 2.3-4.1 4.1V637h-.6zM689.6 604.8c0 .3-.1.6-.4.9s-.6.4-.9.4c-.4 0-.7-.1-.9-.4-.3-.3-.4-.6-.4-.9 0-.4.1-.7.4-.9.3-.3.6-.4.9-.4s.6.1.9.4c.3.2.4.5.4.9zm-1 8.7V637h-.6v-23.5h.6zM712.8 615.6c-.1.1-.1.1-.2.1s-.3-.1-.6-.3c-.2-.2-.6-.5-1.1-.7s-1.1-.5-1.8-.7c-.7-.2-1.6-.3-2.7-.3-1 0-1.9.2-2.7.5s-1.5.7-2.1 1.2-1.1 1.1-1.4 1.7-.5 1.3-.5 2.1.2 1.6.6 2.1c.4.6.9 1 1.6 1.4.6.4 1.4.7 2.2 1s1.7.5 2.5.8c.9.3 1.7.5 2.5.8s1.6.7 2.2 1.1 1.2 1 1.6 1.6.6 1.5.6 2.4c0 1-.2 1.9-.5 2.7s-.8 1.6-1.5 2.2-1.5 1.1-2.4 1.5c-1 .4-2 .6-3.3.6-.8 0-1.6-.1-2.3-.2s-1.3-.3-1.8-.6c-.6-.2-1.1-.5-1.6-.9s-1-.7-1.5-1.2l.1-.1.1-.1h.2c.1 0 .3.1.6.4s.7.6 1.2.9 1.2.6 2 .9c.8.3 1.8.4 2.9.4 1.2 0 2.2-.2 3.1-.5s1.6-.8 2.2-1.4 1.1-1.3 1.4-2 .5-1.6.5-2.5c0-.9-.2-1.7-.6-2.3s-.9-1.1-1.6-1.5c-.6-.4-1.4-.8-2.2-1s-1.7-.5-2.5-.8c-.9-.3-1.7-.5-2.5-.8s-1.6-.6-2.2-1.1c-.6-.4-1.2-.9-1.6-1.6-.4-.6-.6-1.4-.6-2.3 0-.8.2-1.5.5-2.2.4-.7.8-1.3 1.5-1.9.6-.6 1.4-1 2.3-1.3s1.9-.5 2.9-.5c1.3 0 2.5.2 3.5.5 1 .4 2 1 2.9 1.8l.1.1zM723.1 637v-23.5h.1c.2 0 .3.1.3.4l.1 4.4c.9-1.6 2-2.8 3.3-3.8 1.3-.9 2.7-1.4 4.3-1.4 1.9 0 3.4.6 4.4 1.8s1.7 2.8 2 5c.2-1.1.5-2.1 1-3 .5-.8 1-1.6 1.7-2.1.7-.6 1.4-1 2.2-1.2s1.7-.4 2.5-.4c1.1 0 2.1.2 3 .6s1.7.9 2.3 1.7c.6.7 1.1 1.7 1.4 2.8s.5 2.4.5 3.8V637h-.6v-15.1c0-2.7-.6-4.8-1.7-6.2-1.2-1.4-2.8-2.1-4.9-2.1-.9 0-1.8.2-2.7.5-.9.4-1.6.9-2.3 1.6s-1.2 1.6-1.6 2.6-.6 2.3-.6 3.6V637h-.6v-15.1c0-1.3-.1-2.5-.4-3.5s-.7-1.9-1.2-2.6-1.2-1.3-1.9-1.6-1.7-.6-2.6-.6c-1.5 0-2.9.5-4.2 1.5s-2.4 2.3-3.4 4v18h-.4zM789.3 634.9h16.1v2.1h-18.5v-34h2.4v31.9zM827.6 637c-.2 0-.3-.1-.3-.4l-.1-3.8c-.7.7-1.3 1.3-2 1.9s-1.4 1-2.1 1.4c-.8.4-1.6.7-2.4.9s-1.8.3-2.9.3c-.7 0-1.4-.1-2.1-.3s-1.4-.6-1.9-1-1-1.1-1.4-1.8c-.4-.7-.5-1.7-.5-2.7 0-1.1.3-2 .9-2.8s1.6-1.6 2.8-2.1c1.3-.6 2.9-1.1 4.8-1.4s4.2-.5 6.9-.6v-3c0-1.2-.1-2.3-.4-3.3s-.7-1.8-1.2-2.5-1.2-1.2-2-1.6-1.7-.5-2.8-.5c-.8 0-1.6.1-2.3.3s-1.3.4-1.8.7-1 .5-1.4.8c-.4.3-.7.6-1 .8l-.7.7c-.2.2-.3.3-.4.3s-.1 0-.2-.1l-.1-.1c1.2-1.2 2.3-2.1 3.6-2.8s2.7-1 4.3-1c1.2 0 2.2.2 3.1.6s1.6.9 2.2 1.7 1 1.6 1.3 2.6c.3 1 .4 2.2.4 3.5l-.3 15.3zm-10-.1c1.1 0 2.1-.1 3-.4s1.7-.6 2.5-1 1.5-.9 2.1-1.5 1.3-1.2 1.9-1.8V625c-5 .2-8.8.8-11.2 1.9s-3.7 2.6-3.7 4.7c0 .9.2 1.8.5 2.4s.7 1.2 1.2 1.7 1.1.8 1.7 1c.7.1 1.3.2 2 .2zM838.2 637v-34.6h.6v15.9c1.1-1.6 2.3-2.9 3.8-3.8s3.1-1.4 4.9-1.4c3 0 5.4 1 7 2.9s2.4 5 2.4 9.1c0 1.7-.2 3.3-.7 4.8-.4 1.5-1.1 2.8-2 3.9s-1.9 2-3.2 2.6-2.8.9-4.5.9-3.3-.3-4.6-1-2.4-1.7-3.3-3.2l-.1 3.6v.2c0 .1-.1.1-.2.1h-.1zm9.3-23.4c-1.7 0-3.4.5-4.9 1.5s-2.8 2.3-3.9 4.1v13.2c1 1.6 2.2 2.8 3.4 3.5 1.3.7 2.7 1 4.4 1s3.1-.3 4.3-.9 2.2-1.4 3-2.5c.8-1.1 1.4-2.3 1.8-3.7s.6-3 .6-4.6c0-3.9-.7-6.8-2.2-8.7-1.4-2-3.6-2.9-6.5-2.9zM874.4 613.1c1.6 0 3.1.3 4.4.9s2.4 1.4 3.2 2.5c.9 1.1 1.5 2.3 2 3.8.4 1.5.7 3.2.7 5s-.2 3.5-.7 5c-.4 1.5-1.1 2.7-2 3.8s-1.9 1.9-3.2 2.4-2.7.9-4.4.9c-1.7 0-3.1-.3-4.4-.9s-2.3-1.4-3.2-2.4-1.5-2.3-2-3.8c-.4-1.5-.7-3.1-.7-5 0-1.8.2-3.5.7-5s1.1-2.8 2-3.8c.9-1.1 1.9-1.9 3.2-2.5s2.8-.9 4.4-.9zm0 23.7c1.6 0 3-.3 4.2-.8s2.2-1.3 3-2.4 1.4-2.2 1.8-3.7c.4-1.4.6-3 .6-4.7s-.2-3.3-.6-4.7-1-2.7-1.8-3.7-1.8-1.8-3-2.4-2.6-.9-4.2-.9-3 .3-4.2.9-2.2 1.4-3 2.4c-.8 1-1.4 2.3-1.8 3.7s-.6 3-.6 4.7c0 1.7.2 3.3.6 4.7s1 2.6 1.8 3.7 1.8 1.8 3 2.4 2.6.8 4.2.8zM893.7 637v-23.5h.1c.2 0 .3.1.3.4l.1 6.5c.3-1.2.8-2.2 1.2-3.1.5-.9 1.1-1.7 1.8-2.3s1.4-1.1 2.3-1.4 1.8-.5 2.9-.5c.8 0 1.5.1 2.1.2.7.2 1.3.4 1.9.7l-.1.2-.1.1s-.1.1-.2.1-.2 0-.4-.1-.4-.2-.7-.3-.7-.2-1.1-.3-.9-.1-1.5-.1c-2.1 0-3.8.7-5.1 2.1s-2.3 3.3-3.1 5.9V637h-.4zM928.1 637c-.2 0-.3-.1-.3-.4l-.1-3.8c-.7.7-1.3 1.3-2 1.9s-1.4 1-2.1 1.4c-.8.4-1.6.7-2.4.9-.9.2-1.8.3-2.9.3-.7 0-1.4-.1-2.1-.3s-1.4-.6-1.9-1c-.6-.5-1-1.1-1.4-1.8s-.5-1.7-.5-2.7c0-1.1.3-2 .9-2.8s1.6-1.6 2.8-2.1 2.9-1.1 4.8-1.4 4.2-.5 6.9-.6v-3c0-1.2-.1-2.3-.4-3.3s-.7-1.8-1.2-2.5-1.2-1.2-2-1.6-1.7-.5-2.8-.5c-.8 0-1.6.1-2.3.3s-1.3.4-1.8.7c-.5.3-1 .5-1.4.8s-.7.6-1 .8-.5.5-.7.7c-.2.2-.3.3-.4.3s-.1 0-.2-.1l-.1-.1c1.2-1.2 2.3-2.1 3.6-2.8 1.2-.6 2.7-1 4.3-1 1.2 0 2.2.2 3.1.6s1.6.9 2.2 1.7 1 1.6 1.3 2.6c.3 1 .4 2.2.4 3.5l-.3 15.3zm-10-.1c1.1 0 2.1-.1 3-.4s1.7-.6 2.5-1 1.5-.9 2.1-1.5c.6-.6 1.3-1.2 1.9-1.8V625c-5 .2-8.8.8-11.2 1.9s-3.7 2.6-3.7 4.7c0 .9.2 1.8.5 2.4s.7 1.2 1.2 1.7c.5.4 1.1.8 1.7 1s1.4.2 2 .2zM944.2 637.4c-1.4 0-2.5-.4-3.2-1.1-.8-.8-1.2-2-1.2-3.7V615h-3.9c-.2 0-.3-.1-.3-.2v-.1l4.2-.1.2-9.5c0-.1 0-.2.1-.2s.1-.1.2-.1h.1v9.8h8v.5h-8v17.6c0 .8.1 1.5.3 2 .2.6.5 1 .8 1.3.4.3.8.6 1.2.8s1 .2 1.5.2c.7 0 1.3-.1 1.8-.3s.9-.4 1.3-.7c.4-.2.6-.5.9-.7.2-.2.4-.3.5-.3s.1 0 .2.1l.1.1c-.2.3-.5.6-.9.9-.3.3-.7.5-1.1.7s-.8.4-1.3.5c-.6 0-1 .1-1.5.1zM965.7 613.1c1.6 0 3.1.3 4.4.9s2.4 1.4 3.2 2.5c.9 1.1 1.5 2.3 2 3.8s.7 3.2.7 5c0 1.8-.2 3.5-.7 5-.4 1.5-1.1 2.7-2 3.8s-1.9 1.9-3.2 2.4-2.7.9-4.4.9c-1.7 0-3.1-.3-4.4-.9s-2.3-1.4-3.2-2.4-1.5-2.3-2-3.8c-.4-1.5-.7-3.1-.7-5 0-1.8.2-3.5.7-5 .4-1.5 1.1-2.8 2-3.8.9-1.1 1.9-1.9 3.2-2.5s2.7-.9 4.4-.9zm0 23.7c1.6 0 3-.3 4.2-.8s2.2-1.3 3-2.4 1.4-2.2 1.8-3.7c.4-1.4.6-3 .6-4.7s-.2-3.3-.6-4.7-1-2.7-1.8-3.7-1.8-1.8-3-2.4-2.6-.9-4.2-.9-3 .3-4.2.9-2.2 1.4-3 2.4c-.8 1-1.4 2.3-1.8 3.7s-.6 3-.6 4.7c0 1.7.2 3.3.6 4.7s1 2.6 1.8 3.7c.8 1 1.8 1.8 3 2.4s2.6.8 4.2.8zM985 637v-23.5h.1c.2 0 .3.1.3.4l.1 6.5c.3-1.2.8-2.2 1.2-3.1.5-.9 1.1-1.7 1.8-2.3s1.4-1.1 2.3-1.4 1.8-.5 2.9-.5c.8 0 1.5.1 2.1.2.7.2 1.3.4 1.9.7l-.1.2-.1.1s-.1.1-.2.1-.2 0-.4-.1-.4-.2-.7-.3-.7-.2-1.1-.3-.9-.1-1.5-.1c-2.1 0-3.8.7-5.1 2.1s-2.3 3.3-3.1 5.9V637h-.4zM1009.7 645.1c0 .1-.1.2-.2.4-.1.1-.2.2-.4.2h-.3l4-9-10.2-23.1h.3c.1 0 .2 0 .3.1l.2.2 9.4 21.4c.1.1.1.3.2.4s.1.3.1.5c0-.2.1-.3.1-.5.1-.1.1-.3.2-.4l9.4-21.4c.1-.2.3-.3.4-.3h.3l-13.8 31.5z"/></g><path class="st8" d="M68 789c-9.8-14.5-18.4-23.7-24.7-31-4.3 15.4-12.1 29.5-29.9 45.2l-5.2-8c19-14.6 27.7-33.3 30.2-50.4h-27v-8h27.9c.4-5.1.4-9.7.4-14.2v-17.2H28c-3.1 7.4-5.3 12.1-13 20.7L9.1 719c11.7-12.1 17.7-31.3 18.9-40.2l8.1 1.3s-2.3 12.4-5.1 17.2h37.1v8.1H48.3v16.4c0 4.3 0 9.6-.1 15h25.1v8H47.4c-.3 2.9-1.1 6.4-1.1 6.4 5.9 5.6 17 17.2 27.5 29.9L68 789zm50.6 10.2v-13.8h-30v13.8h-8.5V693.1H127v106.3l-8.4-.2zm0-98h-30v75.9h29.9v-75.9zM173.3 790.2v12.9H165V696.9h14.1c2-3.5 5.5-10 7.8-18.4l7.8 2.4c-1.9 6.1-4.7 11.8-7 16h22.9v93.2h-37.3zm28.9-85.2h-29v33.6h29V705zm0 41.8h-29v35.4h29v-35.4zm34.3 46.6h6.1c25.3 0 27.7-2 27.7-64.1V705h-35.9c-4 7.8-9.8 16.9-18.1 24.6l-4.9-7.6c16-12.8 21.8-33.6 23.5-43.2l8 2s-1.9 8.4-4.9 16.1h40.6v32.3c0 65.8-4.1 72.6-39 72.6l-3.1-8.4zm8.7-29.3c-6.1-13.3-12.9-24.6-15.8-29.5l7-4.1c4.9 8.8 9.7 16.5 16.2 29.4l-7.4 4.2zM330.7 803.1v-79.9c-4.5 20.2-7.3 31.7-14 45.6l-5.6-8c7.4-11.3 13.4-31.4 18-48.7h-14.4v-7.8h16v-25.5h8.2v25.5h12.4v7.8H340c5.1 11.6 9.3 18.5 14 24.9l-4.8 8c-4.7-9.3-7.4-16.5-10.2-25.3v83.4h-8.3zm104.9-21.3c-4.1 14.9-9.2 21.3-14.5 21.3-4.5 0-10.5-4.5-17.4-18.4-10.2 8.6-23.1 15.8-27.8 18.5l-5.1-6.7c4-1.9 19.4-9.2 29.7-18.8-2.5-6.4-4.9-15.4-7.3-26.7h-19c-.3 4.4-.5 7.3-1.3 11.4 8.4 5.9 16.2 13 16.2 13l-4.9 7.4s-6.9-10.1-13.3-14c-5.5 19.7-16.1 30.3-16.1 30.3l-5.5-7.7s16-13.2 17.4-40.6h-13.4v-7.7h38.2c-1.9-16.4-3.9-36.8-4.5-63.8l7.3-.4c0 25.3 2 44.7 4.5 64.2h18.4c-1.9-2.3-4.7-4.8-8.4-7.4l5.3-4c3.9 3.3 8.4 7.8 8.4 7.8l-4.4 3.6h14.4v7.7h-31.8c1.7 9.4 4 15.7 6 21 4.9-5.1 10.4-10.9 13.3-18l6.7 3.9c-4.8 8.1-10.6 15.3-17 21.4 4.5 8.4 7.8 14.2 11.2 14.2 2.9 0 5.3-5.6 8.6-20.3l6.1 8.8zm-54.1-44s-1.1-4.4-1.9-8.1c-6.5 1.5-14.8 2.3-26.2 3.3l-2.1-7.4c1.1 0 5.9.1 8.2.1 3.3-3.9 6.6-8.6 9.2-12.8-5.2-4.4-11.7-9.7-18.5-14l4-5.3c2.1 1.6 4.9 3.6 6.1 4.7 3.6-5.5 6.5-12.2 8-19.7l6.3 3.5c-3.5 9.2-6.1 15.6-9.6 20 1.9 1.5 5.1 4.3 6.4 5.6 2.1-3.6 4-7.7 5.7-12.5l5.5 4c-4.3 8.8-9 17.6-15.4 26.2 3.6-.3 6.9-.7 11.2-1.6-.5-2.1-1.3-4.7-2-6.6l6.1-1.9c2.8 11 5.1 20 5.1 20l-6.1 2.5zm47.2 0s-.8-4.3-2-8.1c-7.2 1.3-15.8 2.4-26.2 2.9l-2.1-7c1.2 0 5.2.1 7.4.1 3.3-3.9 6.4-8.4 8.9-12.5-4.5-4.4-9.6-8.8-17-14l3.7-5.6c1.7 1.5 3.7 3.2 5.3 4.7 3.6-5.5 7.2-12.2 8.6-19.7l6.4 3.5c-3.5 8-7.2 15.6-10.6 20 1.7 1.5 4.4 4 6.3 5.6 2.3-3.7 4.7-8.4 6.4-12.5l5.3 4c-4.9 9.8-10.4 19.2-16.1 26.2 4-.1 8.1-.7 12.5-1.6-.5-2-1.5-4.9-2.1-6.6l6.1-1.9c2.9 10.5 5.2 20 5.2 20l-6 2.5zM481.5 803.1v-79.9c-3.7 19.7-7 31.5-13.2 45.6l-5.6-8c7.2-12.5 13.3-31.8 17.3-48.7h-14.2v-7.8h15.7v-25.5h8.4v25.5H505v7.8h-14c4.9 12.1 9.3 22.1 16 32.6l-4.9 8c-5.7-12.5-8.6-21-12.1-33v83.4h-8.5zm96.8-22.5v8.6c0 8-.8 13.7-21.5 13.7l-3.2-7.6c15.3 0 16.5-.5 16.5-5.3v-9.4h-50.8v22.5H511v-22.5h-9.3v-6.9h9.3v-35.9h28.9v-10h-36.6v-6.6h20.6V711h-13.7v-6.4h13.7v-9.2h-18.5v-6.9h18.5v-9.7h8.2v9.7h23.7v-9.7h8.2v9.7h20.1v6.9H564v9.2h16.1v6.4H564v10.2h23.1v6.6H548v10h30.2v35.9h8.8v6.9h-8.7zm-38.4-35.9h-20.6v10.9h20.6v-10.9zm0 17h-20.6v12h20.6v-12zm16-66.4h-23.7v9.2h23.7v-9.2zm0 15.6h-23.7v10.2h23.7v-10.2zm14.2 33.8h-21.9v10.9h21.9v-10.9zm0 17h-21.9v12h21.9v-12zM635.1 784.8v12.8H627v-59.7c-2.5 9.7-4.5 14.4-7.6 21.7l-5.1-9.2c10.1-16.5 17-38.3 20.1-54.9h-16.9v-8.1h47.9v8.1h-23.3c-2 11.6-4.3 19.6-8 29h27.5v60.4h-26.5zm18.5-52.2h-18.5v44.2h18.5v-44.2zm60.9 70.3v-61.2h-21.3c-.7 20.7-4.9 42.8-23.5 60.8l-5.6-7.2c17.8-16.4 20.3-36.7 20.9-53.6h-16.2v-8H685v-39.6h-13.7v-8h64v8h-12.5v39.6h16.1v8h-16.1v61.2h-8.3zm0-108.8h-21.1v39.6h21.1v-39.6zM857.4 797.7c-6 0-11.3-3.6-11.3-9.8 0-.8 0-1.5.1-2.1l6.1-37.5h-30.9c-3.7 22.3-15.6 43-49.3 54.7l-6-7.7c31.1-8.4 44.6-29.8 47.1-46.9h-34v-8h35v-15.2h8.2v15.2h39.1l-6.8 43c-.1.7-.1 1.5-.1 2 0 2.7 1.2 4.5 6.4 4.5h9.6c8.6 0 9.4-4.7 11.4-27l8.2 4.4c-2.4 23.1-5.5 30.6-16.1 30.6h-16.7zm19.5-86.5v-14.5h-97.1v17.4h-8.2v-25.4h52.5v-10h8.2v10h52.8v22.5h-8.2zm-59.6-6.4c-6.4 12.4-18.1 20.7-37.6 25.8l-4.7-7.7c19.8-3.7 29.3-10.4 35.6-22.3l6.7 4.2zm32.6 23.1c-8.6 0-11.6-3.1-11.6-10.2v-15.2h8.2v13.8c0 3.5.5 3.6 6.4 3.6h12.6c3.5 0 6-3.1 6.9-10.1l7.8 4.7c-1.9 8-5.6 13.4-11.6 13.4h-18.7zM919.3 796.5v-7.8h56.1v-16.8h-46.2v-8h46.2v-16.4c-11.4.5-22.5.7-34.6.7h-12.6l-1.5-8.2c7.4 0 14.5.1 21 .1 7.2-7.2 13-14.1 15.8-20.7h-25.8v-8.1h84.5v8.1h-49.3c-5.5 8.4-10.1 14.6-16.4 21h4.4c18.8 0 36-.8 50.5-2.8-4.9-4.4-11.3-10.2-11.3-10.2l6.3-4.4c7 7 17.6 17.6 26.7 26.2l-5.7 5.9c-3.6-4-7-7.6-10.2-10.9-5.1.7-16.2 2-33 3.1V764h46v8h-46v16.8h56v8l-120.9-.3zm110.4-84.1v-14H930v14h-8.4v-22.1h54.1v-11.4h8.2v11.4h54.1v22.1h-8.3z"/><path class="st6" d="M59.3 620c0 2.6-.4 5-1.2 7.1s-1.9 3.9-3.3 5.4-3.1 2.6-5.1 3.4-4.2 1.2-6.6 1.2H30.8v-34h12.4c2.4 0 4.6.4 6.6 1.2s3.7 1.9 5.1 3.4 2.5 3.3 3.3 5.4c.8 2 1.1 4.3 1.1 6.9zm-2.5 0c0-2.4-.3-4.5-1-6.3s-1.6-3.4-2.8-4.7c-1.2-1.3-2.6-2.3-4.3-2.9s-3.5-1-5.6-1h-9.9v30h9.9c2 0 3.9-.3 5.6-1s3.1-1.6 4.3-2.9 2.1-2.8 2.8-4.7 1-4.1 1-6.5zM77.3 613.1c1.6 0 3.1.3 4.4.9s2.4 1.4 3.2 2.5c.9 1.1 1.5 2.3 2 3.8s.7 3.2.7 5c0 1.8-.2 3.5-.7 5-.4 1.5-1.1 2.7-2 3.8s-1.9 1.9-3.2 2.4-2.7.9-4.4.9c-1.7 0-3.1-.3-4.4-.9s-2.3-1.4-3.2-2.4c-.9-1.1-1.5-2.3-2-3.8-.4-1.5-.7-3.1-.7-5 0-1.8.2-3.5.7-5s1.1-2.8 2-3.8c.9-1.1 1.9-1.9 3.2-2.5 1.2-.6 2.7-.9 4.4-.9zm0 23.7c1.6 0 3-.3 4.2-.8s2.2-1.3 3-2.4 1.4-2.2 1.8-3.7c.4-1.4.6-3 .6-4.7s-.2-3.3-.6-4.7-1-2.7-1.8-3.7-1.8-1.8-3-2.4-2.6-.9-4.2-.9-3 .3-4.2.9-2.2 1.4-3 2.4c-.8 1-1.4 2.3-1.8 3.7s-.6 3-.6 4.7c0 1.7.2 3.3.6 4.7s1 2.6 1.8 3.7 1.8 1.8 3 2.4 2.6.8 4.2.8zM109.1 615.6c-.1.1-.1.1-.2.1s-.3-.1-.6-.3c-.2-.2-.6-.5-1.1-.7s-1.1-.5-1.8-.7c-.7-.2-1.6-.3-2.7-.3-1 0-1.9.2-2.7.5s-1.5.7-2.1 1.2-1.1 1.1-1.4 1.7-.5 1.3-.5 2.1.2 1.6.6 2.1c.4.6.9 1 1.6 1.4.6.4 1.4.7 2.2 1s1.7.5 2.5.8 1.7.5 2.5.8c.8.3 1.6.7 2.2 1.1s1.2 1 1.6 1.6.6 1.5.6 2.4c0 1-.2 1.9-.5 2.7s-.8 1.6-1.5 2.2-1.5 1.1-2.4 1.5c-1 .4-2 .6-3.3.6-.8 0-1.6-.1-2.3-.2s-1.3-.3-1.8-.6-1.1-.5-1.6-.9c-.5-.3-1-.7-1.5-1.2l.1-.1.1-.1h.2c.1 0 .3.1.6.4s.7.6 1.2.9 1.2.6 2 .9 1.8.4 2.9.4c1.2 0 2.2-.2 3.1-.5s1.6-.8 2.2-1.4 1.1-1.3 1.4-2 .5-1.6.5-2.5c0-.9-.2-1.7-.6-2.3s-.9-1.1-1.6-1.5c-.6-.4-1.4-.8-2.2-1s-1.7-.5-2.5-.8c-.9-.3-1.7-.5-2.5-.8s-1.6-.6-2.2-1.1c-.6-.4-1.2-.9-1.6-1.6-.4-.6-.6-1.4-.6-2.3 0-.8.2-1.5.5-2.2.4-.7.8-1.3 1.5-1.9.6-.6 1.4-1 2.3-1.3s1.9-.5 2.9-.5c1.3 0 2.5.2 3.5.5s2 1 2.9 1.8l.1.1zM119.5 637v-34.6h.6v15.9c.5-.8 1.2-1.5 1.8-2.2s1.4-1.2 2.2-1.7c.8-.5 1.6-.8 2.5-1.1.9-.2 1.8-.4 2.7-.4 2.6 0 4.6.8 5.8 2.3s1.9 3.7 1.9 6.5V637h-.6v-15.1c0-1.3-.1-2.5-.4-3.5s-.7-1.9-1.3-2.6-1.4-1.3-2.3-1.6-2-.6-3.2-.6c-1.8 0-3.5.5-5.1 1.5s-2.9 2.3-4.1 4.1V637h-.5zM149.6 604.8c0 .3-.1.6-.4.9s-.6.4-.9.4c-.4 0-.7-.1-.9-.4-.3-.3-.4-.6-.4-.9 0-.4.1-.7.4-.9.3-.3.6-.4.9-.4s.6.1.9.4c.3.2.4.5.4.9zm-1 8.7V637h-.6v-23.5h.6zM172.8 615.6c-.1.1-.1.1-.2.1s-.3-.1-.6-.3c-.2-.2-.6-.5-1.1-.7s-1.1-.5-1.8-.7c-.7-.2-1.6-.3-2.7-.3-1 0-1.9.2-2.7.5s-1.5.7-2.1 1.2-1.1 1.1-1.4 1.7-.5 1.3-.5 2.1.2 1.6.6 2.1c.4.6.9 1 1.6 1.4.6.4 1.4.7 2.2 1s1.7.5 2.5.8 1.7.5 2.5.8c.8.3 1.6.7 2.2 1.1s1.2 1 1.6 1.6.6 1.5.6 2.4c0 1-.2 1.9-.5 2.7s-.8 1.6-1.5 2.2-1.5 1.1-2.4 1.5c-1 .4-2 .6-3.3.6-.8 0-1.6-.1-2.3-.2s-1.3-.3-1.8-.6-1.1-.5-1.6-.9c-.5-.3-1-.7-1.5-1.2l.1-.1.1-.1h.2c.1 0 .3.1.6.4s.7.6 1.2.9 1.2.6 2 .9 1.8.4 2.9.4c1.2 0 2.2-.2 3.1-.5s1.6-.8 2.2-1.4 1.1-1.3 1.4-2 .5-1.6.5-2.5c0-.9-.2-1.7-.6-2.3s-.9-1.1-1.6-1.5c-.6-.4-1.4-.8-2.2-1s-1.7-.5-2.5-.8c-.9-.3-1.7-.5-2.5-.8s-1.6-.6-2.2-1.1c-.6-.4-1.2-.9-1.6-1.6-.4-.6-.6-1.4-.6-2.3 0-.8.2-1.5.5-2.2.4-.7.8-1.3 1.5-1.9.6-.6 1.4-1 2.3-1.3s1.9-.5 2.9-.5c1.3 0 2.5.2 3.5.5s2 1 2.9 1.8l.1.1zM183.2 637v-34.6h.6v15.9c.5-.8 1.2-1.5 1.8-2.2s1.4-1.2 2.2-1.7c.8-.5 1.6-.8 2.5-1.1.9-.2 1.8-.4 2.7-.4 2.6 0 4.6.8 5.8 2.3s1.9 3.7 1.9 6.5V637h-.6v-15.1c0-1.3-.1-2.5-.4-3.5s-.7-1.9-1.3-2.6-1.4-1.3-2.3-1.6-2-.6-3.2-.6c-1.8 0-3.5.5-5.1 1.5s-2.9 2.3-4.1 4.1V637h-.5zM225.5 637c-.2 0-.3-.1-.3-.4l-.1-3.8c-.7.7-1.3 1.3-2 1.9s-1.4 1-2.1 1.4c-.8.4-1.6.7-2.4.9s-1.8.3-2.9.3c-.7 0-1.4-.1-2.1-.3s-1.4-.6-1.9-1c-.6-.5-1-1.1-1.4-1.8s-.5-1.7-.5-2.7c0-1.1.3-2 .9-2.8s1.6-1.6 2.8-2.1 2.9-1.1 4.8-1.4 4.2-.5 6.9-.6v-3c0-1.2-.1-2.3-.4-3.3s-.7-1.8-1.2-2.5-1.2-1.2-2-1.6-1.7-.5-2.8-.5c-.8 0-1.6.1-2.3.3s-1.3.4-1.8.7c-.5.3-1 .5-1.4.8s-.7.6-1 .8-.5.5-.7.7c-.2.2-.3.3-.4.3s-.1 0-.2-.1l-.1-.1c1.2-1.2 2.3-2.1 3.6-2.8s2.7-1 4.3-1c1.2 0 2.2.2 3.1.6s1.6.9 2.2 1.7 1 1.6 1.3 2.6c.3 1 .4 2.2.4 3.5l-.3 15.3zm-9.9-.1c1.1 0 2.1-.1 3-.4s1.7-.6 2.5-1 1.5-.9 2.1-1.5c.6-.6 1.3-1.2 1.9-1.8V625c-5 .2-8.8.8-11.2 1.9s-3.7 2.6-3.7 4.7c0 .9.2 1.8.5 2.4s.7 1.2 1.2 1.7 1.1.8 1.7 1 1.3.2 2 .2zM263.3 637h-2.5v-34h2.5v34zM275.9 637v-23.5h.2c.2 0 .3.1.3.4l.1 4.5c.5-.8 1.2-1.5 1.8-2.2s1.4-1.2 2.2-1.7c.8-.5 1.6-.8 2.5-1.1.9-.2 1.8-.4 2.7-.4 2.6 0 4.6.8 5.9 2.3s1.9 3.7 1.9 6.5V637h-.6v-15.1c0-1.3-.1-2.5-.4-3.5s-.7-1.9-1.3-2.6-1.4-1.3-2.3-1.6-2-.6-3.2-.6c-1.8 0-3.5.5-5.1 1.5s-2.9 2.3-4.1 4.1V637h-.6zM309.4 637.4c-1.4 0-2.5-.4-3.2-1.1-.8-.8-1.2-2-1.2-3.7V615h-3.9c-.2 0-.3-.1-.3-.2v-.1l4.2-.1.2-9.5c0-.1 0-.2.1-.2s.1-.1.2-.1h.1v9.8h8v.5h-8v17.6c0 .8.1 1.5.3 2 .2.6.5 1 .8 1.3.4.3.8.6 1.2.8s1 .2 1.5.2c.7 0 1.3-.1 1.8-.3s.9-.4 1.3-.7.6-.5.9-.7c.2-.2.4-.3.5-.3s.1 0 .2.1l.1.1c-.2.3-.5.6-.9.9-.3.3-.7.5-1.1.7s-.8.4-1.3.5c-.6 0-1 .1-1.5.1zM330.9 613.1c1.2 0 2.4.2 3.5.7 1.1.4 2 1.1 2.8 2s1.4 1.9 1.9 3.2.7 2.7.7 4.3c0 .1 0 .1-.1.2-.1 0-.1.1-.2.1h-18.2c0 .2-.1.4-.1.6v.6c0 2 .2 3.7.7 5.2s1.1 2.8 2 3.8c.9 1 1.9 1.8 3.1 2.3s2.6.8 4 .8c1.3 0 2.5-.1 3.4-.4s1.7-.6 2.4-1 1.1-.7 1.4-1c.3-.3.5-.4.6-.4s.1 0 .2.1l.1.1c-.3.3-.7.7-1.2 1s-1.2.7-1.9 1c-.7.3-1.5.5-2.4.7s-1.8.3-2.7.3c-1.6 0-3.1-.3-4.3-.9s-2.4-1.4-3.3-2.5c-.9-1.1-1.6-2.4-2.1-3.9-.5-1.6-.7-3.3-.7-5.3 0-1.7.2-3.3.7-4.7s1.1-2.7 2-3.7 2-1.8 3.2-2.4c1.5-.5 2.9-.8 4.5-.8zm0 .5c-1.4 0-2.7.2-3.8.7s-2.1 1.1-2.9 1.9-1.5 1.8-2 3-.8 2.5-.9 3.9h17.9c0-1.5-.2-2.9-.6-4-.4-1.2-1-2.2-1.7-3s-1.6-1.4-2.6-1.8-2.2-.7-3.4-.7zM350.2 602.5V637h-.6v-34.6h.6zM363.3 602.5V637h-.6v-34.6h.6zM377.4 604.8c0 .3-.1.6-.4.9s-.6.4-.9.4c-.4 0-.7-.1-.9-.4-.3-.3-.4-.6-.4-.9 0-.4.1-.7.4-.9.3-.3.6-.4.9-.4s.6.1.9.4c.3.2.4.5.4.9zm-1.1 8.7V637h-.6v-23.5h.6zM395.6 613.1c1 0 2 .1 2.8.4.9.3 1.6.6 2.3 1.1h5.7v.1c0 .1 0 .2-.1.2s-.2.1-.3.1l-4.7.1c.7.7 1.3 1.5 1.6 2.4s.6 1.9.6 3-.2 2.1-.6 3.1-.9 1.7-1.6 2.4-1.5 1.2-2.5 1.5c-1 .4-2.1.5-3.3.5-1.6 0-2.9-.3-4.1-.9-.4.2-.8.5-1.1.8l-.9.9s-.4.6-.6 1c-.1.3-.2.7-.2 1 0 .8.2 1.4.7 1.8s1.2.7 2 .9 1.7.3 2.8.4c1 .1 2.1.1 3.2.2 1.1 0 2.2.1 3.2.2s2 .3 2.8.7c.8.3 1.5.8 2 1.4s.7 1.4.7 2.4c0 .9-.2 1.8-.7 2.7s-1.2 1.6-2.1 2.3-2 1.2-3.2 1.6-2.7.6-4.2.6c-1.6 0-3-.2-4.2-.5s-2.2-.8-3.1-1.4c-.8-.6-1.5-1.2-1.9-2s-.6-1.6-.6-2.4c0-1.3.5-2.5 1.4-3.5s2.1-1.7 3.7-2.2c-.9-.2-1.6-.6-2.1-1.1s-.8-1.2-.8-2.1c0-.3.1-.7.2-1s.3-.7.6-1 .5-.7.9-1c.3-.3.7-.6 1.2-.8-1.1-.6-1.9-1.5-2.5-2.6s-.9-2.3-.9-3.8c0-1.1.2-2.1.6-3s.9-1.7 1.6-2.4 1.5-1.2 2.5-1.5c.8-.4 1.9-.6 3.2-.6zm9.9 25.8c0-.9-.2-1.6-.7-2.1-.4-.5-1-1-1.8-1.2-.7-.3-1.6-.5-2.5-.6s-1.9-.2-3-.3c-1-.1-2-.1-3.1-.2s-1.9-.2-2.8-.3c-.8.3-1.5.6-2.1.9-.6.4-1.2.8-1.6 1.2-.5.5-.8 1-1.1 1.5s-.4 1.2-.4 1.8c0 .8.2 1.6.6 2.3s1 1.3 1.8 1.9c.8.5 1.8.9 2.9 1.2s2.4.5 3.8.5c1.3 0 2.5-.2 3.7-.5s2.2-.8 3.1-1.4 1.6-1.3 2.2-2.1c.8-.7 1-1.6 1-2.6zm-9.9-11.3c1.2 0 2.2-.2 3.1-.5s1.7-.8 2.3-1.4 1.1-1.4 1.5-2.2.5-1.8.5-2.9-.2-2-.5-2.9-.8-1.6-1.5-2.2c-.6-.6-1.4-1.1-2.3-1.4s-1.9-.5-3.1-.5-2.2.2-3.1.5c-.9.3-1.7.8-2.3 1.4s-1.1 1.4-1.5 2.2-.5 1.8-.5 2.9.2 2 .5 2.9.8 1.6 1.5 2.2c.6.6 1.4 1.1 2.3 1.4s1.9.5 3.1.5zM422.8 613.1c1.2 0 2.4.2 3.5.7 1.1.4 2 1.1 2.8 2s1.4 1.9 1.9 3.2.7 2.7.7 4.3c0 .1 0 .1-.1.2-.1 0-.1.1-.2.1h-18.2c0 .2-.1.4-.1.6v.6c0 2 .2 3.7.7 5.2s1.1 2.8 2 3.8c.9 1 1.9 1.8 3.1 2.3s2.6.8 4 .8c1.3 0 2.5-.1 3.4-.4s1.7-.6 2.4-1 1.1-.7 1.4-1c.3-.3.5-.4.6-.4s.1 0 .2.1l.1.1c-.3.3-.7.7-1.2 1s-1.2.7-1.9 1c-.7.3-1.5.5-2.4.7s-1.8.3-2.7.3c-1.6 0-3.1-.3-4.3-.9s-2.4-1.4-3.3-2.5c-.9-1.1-1.6-2.4-2.1-3.9-.5-1.6-.7-3.3-.7-5.3 0-1.7.2-3.3.7-4.7s1.1-2.7 2-3.7 2-1.8 3.2-2.4c1.4-.5 2.9-.8 4.5-.8zm0 .5c-1.4 0-2.7.2-3.8.7s-2.1 1.1-2.9 1.9-1.5 1.8-2 3-.8 2.5-.9 3.9H431c0-1.5-.2-2.9-.6-4-.4-1.2-1-2.2-1.7-3s-1.6-1.4-2.6-1.8-2.2-.7-3.3-.7zM440.7 637v-23.5h.2c.2 0 .3.1.3.4l.1 4.5c.5-.8 1.2-1.5 1.8-2.2s1.4-1.2 2.2-1.7c.8-.5 1.6-.8 2.5-1.1.9-.2 1.8-.4 2.7-.4 2.6 0 4.6.8 5.9 2.3s1.9 3.7 1.9 6.5V637h-.6v-15.1c0-1.3-.1-2.5-.4-3.5s-.7-1.9-1.3-2.6-1.4-1.3-2.3-1.6-2-.6-3.2-.6c-1.8 0-3.5.5-5.1 1.5s-2.9 2.3-4.1 4.1V637h-.6zM474.3 637.4c-1.4 0-2.5-.4-3.2-1.1-.8-.8-1.2-2-1.2-3.7V615H466c-.2 0-.3-.1-.3-.2v-.1l4.2-.1.2-9.5c0-.1 0-.2.1-.2s.1-.1.2-.1h.1v9.8h8v.5h-8v17.6c0 .8.1 1.5.3 2 .2.6.5 1 .8 1.3.4.3.8.6 1.2.8s1 .2 1.5.2c.7 0 1.3-.1 1.8-.3s.9-.4 1.3-.7.6-.5.9-.7c.2-.2.4-.3.5-.3s.1 0 .2.1l.1.1c-.2.3-.5.6-.9.9-.3.3-.7.5-1.1.7s-.8.4-1.3.5c-.6 0-1.1.1-1.5.1zM528.4 628.6c.1-.3.2-.5.3-.8.1-.2.2-.5.3-.7l13.3-23.6c.1-.2.3-.3.4-.4s.3-.1.5-.1h1.7v34h-2.2v-28.9c0-.4 0-.9.1-1.3l-13.4 23.7c-.2.4-.5.6-1 .6h-.4c-.4 0-.7-.2-1-.6l-13.7-23.8c0 .5.1.9.1 1.3v29h-2.1v-34h1.7c.2 0 .4 0 .5.1.1 0 .3.2.4.4l13.7 23.6c.4.5.6 1 .8 1.5zM565.1 613.1c1.2 0 2.4.2 3.5.7 1.1.4 2 1.1 2.8 2s1.4 1.9 1.9 3.2c.4 1.3.7 2.7.7 4.3 0 .1 0 .1-.1.2-.1 0-.1.1-.2.1h-18.2c0 .2-.1.4-.1.6v.6c0 2 .2 3.7.7 5.2s1.1 2.8 2 3.8c.9 1 1.9 1.8 3.1 2.3s2.6.8 4 .8c1.3 0 2.5-.1 3.4-.4s1.7-.6 2.4-1 1.1-.7 1.4-1c.3-.3.5-.4.6-.4s.1 0 .2.1l.1.1c-.3.3-.7.7-1.2 1s-1.2.7-1.9 1-1.5.5-2.4.7-1.8.3-2.7.3c-1.6 0-3.1-.3-4.3-.9-1.3-.6-2.4-1.4-3.3-2.5s-1.6-2.4-2.1-3.9c-.5-1.6-.7-3.3-.7-5.3 0-1.7.2-3.3.7-4.7s1.1-2.7 2-3.7 2-1.8 3.2-2.4c1.4-.5 2.9-.8 4.5-.8zm0 .5c-1.4 0-2.7.2-3.8.7s-2.1 1.1-2.9 1.9-1.5 1.8-2 3-.8 2.5-.9 3.9h17.9c0-1.5-.2-2.9-.6-4s-1-2.2-1.7-3c-.7-.8-1.6-1.4-2.6-1.8s-2.2-.7-3.4-.7zM598 615.7c-.1.1-.1.1-.2.1s-.3-.1-.5-.3-.6-.5-1.2-.8-1.1-.5-1.9-.8c-.8-.2-1.7-.3-2.7-.3-1.5 0-2.9.3-4.1.8s-2.2 1.3-3 2.3-1.5 2.2-1.9 3.7c-.4 1.4-.7 3.1-.7 4.9 0 1.9.2 3.5.7 4.9.4 1.4 1.1 2.6 1.9 3.6s1.8 1.7 2.9 2.2 2.4.8 3.8.8c1.2 0 2.3-.1 3.2-.4s1.6-.6 2.1-1c.6-.4 1-.7 1.3-1s.5-.4.6-.4c.1 0 .1 0 .2.1l.1.1c-.2.4-.6.7-1.1 1.1s-1 .7-1.7 1c-.6.3-1.4.5-2.2.7s-1.7.3-2.6.3c-1.5 0-2.9-.3-4.1-.8s-2.3-1.3-3.1-2.4c-.9-1-1.5-2.3-2-3.8s-.7-3.2-.7-5.1c0-1.8.2-3.5.7-5s1.1-2.8 2-3.8c.9-1.1 2-1.9 3.2-2.5 1.3-.6 2.7-.9 4.3-.9 1.4 0 2.7.2 3.8.7s2.1 1 2.9 1.8v.2zM606.8 637v-34.6h.6v15.9c.5-.8 1.2-1.5 1.8-2.2.7-.6 1.4-1.2 2.2-1.7s1.6-.8 2.5-1.1 1.8-.4 2.7-.4c2.6 0 4.6.8 5.8 2.3s1.9 3.7 1.9 6.5V637h-.6v-15.1c0-1.3-.1-2.5-.4-3.5s-.7-1.9-1.3-2.6-1.4-1.3-2.3-1.6-2-.6-3.2-.6c-1.8 0-3.5.5-5.1 1.5s-2.9 2.3-4.1 4.1V637h-.5zM649.1 637c-.2 0-.3-.1-.3-.4l-.1-3.8c-.7.7-1.3 1.3-2 1.9s-1.4 1-2.1 1.4c-.8.4-1.6.7-2.4.9s-1.8.3-2.9.3c-.7 0-1.4-.1-2.1-.3s-1.4-.6-1.9-1c-.6-.5-1-1.1-1.4-1.8s-.5-1.7-.5-2.7c0-1.1.3-2 .9-2.8s1.6-1.6 2.8-2.1c1.3-.6 2.9-1.1 4.8-1.4s4.2-.5 6.9-.6v-3c0-1.2-.1-2.3-.4-3.3s-.7-1.8-1.2-2.5-1.2-1.2-2-1.6-1.7-.5-2.8-.5c-.8 0-1.6.1-2.3.3s-1.3.4-1.8.7c-.5.3-1 .5-1.4.8s-.7.6-1 .8l-.7.7c-.2.2-.3.3-.4.3s-.1 0-.2-.1l-.1-.1c1.2-1.2 2.3-2.1 3.6-2.8s2.7-1 4.3-1c1.2 0 2.2.2 3.1.6s1.6.9 2.2 1.7 1 1.6 1.3 2.6c.3 1 .4 2.2.4 3.5l-.3 15.3zm-9.9-.1c1.1 0 2.1-.1 3-.4s1.7-.6 2.5-1 1.5-.9 2.1-1.5 1.3-1.2 1.9-1.8V625c-5 .2-8.8.8-11.2 1.9s-3.7 2.6-3.7 4.7c0 .9.2 1.8.5 2.4s.7 1.2 1.2 1.7 1.1.8 1.7 1c.6.1 1.3.2 2 .2zM659.5 637v-23.5h.2c.2 0 .3.1.3.4l.1 4.5c.5-.8 1.2-1.5 1.8-2.2.7-.7 1.4-1.2 2.2-1.7s1.6-.8 2.5-1.1c.9-.2 1.8-.4 2.7-.4 2.6 0 4.6.8 5.9 2.3 1.3 1.6 1.9 3.7 1.9 6.5V637h-.6v-15.1c0-1.3-.1-2.5-.4-3.5s-.7-1.9-1.3-2.6-1.4-1.3-2.3-1.6-2-.6-3.2-.6c-1.8 0-3.5.5-5.1 1.5s-2.9 2.3-4.1 4.1V637h-.6zM689.6 604.8c0 .3-.1.6-.4.9s-.6.4-.9.4c-.4 0-.7-.1-.9-.4-.3-.3-.4-.6-.4-.9 0-.4.1-.7.4-.9.3-.3.6-.4.9-.4s.6.1.9.4c.3.2.4.5.4.9zm-1 8.7V637h-.6v-23.5h.6zM712.8 615.6c-.1.1-.1.1-.2.1s-.3-.1-.6-.3c-.2-.2-.6-.5-1.1-.7s-1.1-.5-1.8-.7c-.7-.2-1.6-.3-2.7-.3-1 0-1.9.2-2.7.5s-1.5.7-2.1 1.2-1.1 1.1-1.4 1.7-.5 1.3-.5 2.1.2 1.6.6 2.1c.4.6.9 1 1.6 1.4.6.4 1.4.7 2.2 1s1.7.5 2.5.8c.9.3 1.7.5 2.5.8s1.6.7 2.2 1.1 1.2 1 1.6 1.6.6 1.5.6 2.4c0 1-.2 1.9-.5 2.7s-.8 1.6-1.5 2.2-1.5 1.1-2.4 1.5c-1 .4-2 .6-3.3.6-.8 0-1.6-.1-2.3-.2s-1.3-.3-1.8-.6c-.6-.2-1.1-.5-1.6-.9s-1-.7-1.5-1.2l.1-.1.1-.1h.2c.1 0 .3.1.6.4s.7.6 1.2.9 1.2.6 2 .9c.8.3 1.8.4 2.9.4 1.2 0 2.2-.2 3.1-.5s1.6-.8 2.2-1.4 1.1-1.3 1.4-2 .5-1.6.5-2.5c0-.9-.2-1.7-.6-2.3s-.9-1.1-1.6-1.5c-.6-.4-1.4-.8-2.2-1s-1.7-.5-2.5-.8c-.9-.3-1.7-.5-2.5-.8s-1.6-.6-2.2-1.1c-.6-.4-1.2-.9-1.6-1.6-.4-.6-.6-1.4-.6-2.3 0-.8.2-1.5.5-2.2.4-.7.8-1.3 1.5-1.9.6-.6 1.4-1 2.3-1.3s1.9-.5 2.9-.5c1.3 0 2.5.2 3.5.5 1 .4 2 1 2.9 1.8l.1.1zM723.1 637v-23.5h.1c.2 0 .3.1.3.4l.1 4.4c.9-1.6 2-2.8 3.3-3.8 1.3-.9 2.7-1.4 4.3-1.4 1.9 0 3.4.6 4.4 1.8s1.7 2.8 2 5c.2-1.1.5-2.1 1-3 .5-.8 1-1.6 1.7-2.1.7-.6 1.4-1 2.2-1.2s1.7-.4 2.5-.4c1.1 0 2.1.2 3 .6s1.7.9 2.3 1.7c.6.7 1.1 1.7 1.4 2.8s.5 2.4.5 3.8V637h-.6v-15.1c0-2.7-.6-4.8-1.7-6.2-1.2-1.4-2.8-2.1-4.9-2.1-.9 0-1.8.2-2.7.5-.9.4-1.6.9-2.3 1.6s-1.2 1.6-1.6 2.6-.6 2.3-.6 3.6V637h-.6v-15.1c0-1.3-.1-2.5-.4-3.5s-.7-1.9-1.2-2.6-1.2-1.3-1.9-1.6-1.7-.6-2.6-.6c-1.5 0-2.9.5-4.2 1.5s-2.4 2.3-3.4 4v18h-.4zM789.3 634.9h16.1v2.1h-18.5v-34h2.4v31.9zM827.6 637c-.2 0-.3-.1-.3-.4l-.1-3.8c-.7.7-1.3 1.3-2 1.9s-1.4 1-2.1 1.4c-.8.4-1.6.7-2.4.9s-1.8.3-2.9.3c-.7 0-1.4-.1-2.1-.3s-1.4-.6-1.9-1-1-1.1-1.4-1.8c-.4-.7-.5-1.7-.5-2.7 0-1.1.3-2 .9-2.8s1.6-1.6 2.8-2.1c1.3-.6 2.9-1.1 4.8-1.4s4.2-.5 6.9-.6v-3c0-1.2-.1-2.3-.4-3.3s-.7-1.8-1.2-2.5-1.2-1.2-2-1.6-1.7-.5-2.8-.5c-.8 0-1.6.1-2.3.3s-1.3.4-1.8.7-1 .5-1.4.8c-.4.3-.7.6-1 .8l-.7.7c-.2.2-.3.3-.4.3s-.1 0-.2-.1l-.1-.1c1.2-1.2 2.3-2.1 3.6-2.8s2.7-1 4.3-1c1.2 0 2.2.2 3.1.6s1.6.9 2.2 1.7 1 1.6 1.3 2.6c.3 1 .4 2.2.4 3.5l-.3 15.3zm-10-.1c1.1 0 2.1-.1 3-.4s1.7-.6 2.5-1 1.5-.9 2.1-1.5 1.3-1.2 1.9-1.8V625c-5 .2-8.8.8-11.2 1.9s-3.7 2.6-3.7 4.7c0 .9.2 1.8.5 2.4s.7 1.2 1.2 1.7 1.1.8 1.7 1c.7.1 1.3.2 2 .2zM838.2 637v-34.6h.6v15.9c1.1-1.6 2.3-2.9 3.8-3.8s3.1-1.4 4.9-1.4c3 0 5.4 1 7 2.9s2.4 5 2.4 9.1c0 1.7-.2 3.3-.7 4.8-.4 1.5-1.1 2.8-2 3.9s-1.9 2-3.2 2.6-2.8.9-4.5.9-3.3-.3-4.6-1-2.4-1.7-3.3-3.2l-.1 3.6v.2c0 .1-.1.1-.2.1h-.1zm9.3-23.4c-1.7 0-3.4.5-4.9 1.5s-2.8 2.3-3.9 4.1v13.2c1 1.6 2.2 2.8 3.4 3.5 1.3.7 2.7 1 4.4 1s3.1-.3 4.3-.9 2.2-1.4 3-2.5c.8-1.1 1.4-2.3 1.8-3.7s.6-3 .6-4.6c0-3.9-.7-6.8-2.2-8.7-1.4-2-3.6-2.9-6.5-2.9zM874.4 613.1c1.6 0 3.1.3 4.4.9s2.4 1.4 3.2 2.5c.9 1.1 1.5 2.3 2 3.8.4 1.5.7 3.2.7 5s-.2 3.5-.7 5c-.4 1.5-1.1 2.7-2 3.8s-1.9 1.9-3.2 2.4-2.7.9-4.4.9c-1.7 0-3.1-.3-4.4-.9s-2.3-1.4-3.2-2.4-1.5-2.3-2-3.8c-.4-1.5-.7-3.1-.7-5 0-1.8.2-3.5.7-5s1.1-2.8 2-3.8c.9-1.1 1.9-1.9 3.2-2.5s2.8-.9 4.4-.9zm0 23.7c1.6 0 3-.3 4.2-.8s2.2-1.3 3-2.4 1.4-2.2 1.8-3.7c.4-1.4.6-3 .6-4.7s-.2-3.3-.6-4.7-1-2.7-1.8-3.7-1.8-1.8-3-2.4-2.6-.9-4.2-.9-3 .3-4.2.9-2.2 1.4-3 2.4c-.8 1-1.4 2.3-1.8 3.7s-.6 3-.6 4.7c0 1.7.2 3.3.6 4.7s1 2.6 1.8 3.7 1.8 1.8 3 2.4 2.6.8 4.2.8zM893.7 637v-23.5h.1c.2 0 .3.1.3.4l.1 6.5c.3-1.2.8-2.2 1.2-3.1.5-.9 1.1-1.7 1.8-2.3s1.4-1.1 2.3-1.4 1.8-.5 2.9-.5c.8 0 1.5.1 2.1.2.7.2 1.3.4 1.9.7l-.1.2-.1.1s-.1.1-.2.1-.2 0-.4-.1-.4-.2-.7-.3-.7-.2-1.1-.3-.9-.1-1.5-.1c-2.1 0-3.8.7-5.1 2.1s-2.3 3.3-3.1 5.9V637h-.4zM928.1 637c-.2 0-.3-.1-.3-.4l-.1-3.8c-.7.7-1.3 1.3-2 1.9s-1.4 1-2.1 1.4c-.8.4-1.6.7-2.4.9-.9.2-1.8.3-2.9.3-.7 0-1.4-.1-2.1-.3s-1.4-.6-1.9-1c-.6-.5-1-1.1-1.4-1.8s-.5-1.7-.5-2.7c0-1.1.3-2 .9-2.8s1.6-1.6 2.8-2.1 2.9-1.1 4.8-1.4 4.2-.5 6.9-.6v-3c0-1.2-.1-2.3-.4-3.3s-.7-1.8-1.2-2.5-1.2-1.2-2-1.6-1.7-.5-2.8-.5c-.8 0-1.6.1-2.3.3s-1.3.4-1.8.7c-.5.3-1 .5-1.4.8s-.7.6-1 .8-.5.5-.7.7c-.2.2-.3.3-.4.3s-.1 0-.2-.1l-.1-.1c1.2-1.2 2.3-2.1 3.6-2.8 1.2-.6 2.7-1 4.3-1 1.2 0 2.2.2 3.1.6s1.6.9 2.2 1.7 1 1.6 1.3 2.6c.3 1 .4 2.2.4 3.5l-.3 15.3zm-10-.1c1.1 0 2.1-.1 3-.4s1.7-.6 2.5-1 1.5-.9 2.1-1.5c.6-.6 1.3-1.2 1.9-1.8V625c-5 .2-8.8.8-11.2 1.9s-3.7 2.6-3.7 4.7c0 .9.2 1.8.5 2.4s.7 1.2 1.2 1.7c.5.4 1.1.8 1.7 1s1.4.2 2 .2zM944.2 637.4c-1.4 0-2.5-.4-3.2-1.1-.8-.8-1.2-2-1.2-3.7V615h-3.9c-.2 0-.3-.1-.3-.2v-.1l4.2-.1.2-9.5c0-.1 0-.2.1-.2s.1-.1.2-.1h.1v9.8h8v.5h-8v17.6c0 .8.1 1.5.3 2 .2.6.5 1 .8 1.3.4.3.8.6 1.2.8s1 .2 1.5.2c.7 0 1.3-.1 1.8-.3s.9-.4 1.3-.7c.4-.2.6-.5.9-.7.2-.2.4-.3.5-.3s.1 0 .2.1l.1.1c-.2.3-.5.6-.9.9-.3.3-.7.5-1.1.7s-.8.4-1.3.5c-.6 0-1 .1-1.5.1zM965.7 613.1c1.6 0 3.1.3 4.4.9s2.4 1.4 3.2 2.5c.9 1.1 1.5 2.3 2 3.8s.7 3.2.7 5c0 1.8-.2 3.5-.7 5-.4 1.5-1.1 2.7-2 3.8s-1.9 1.9-3.2 2.4-2.7.9-4.4.9c-1.7 0-3.1-.3-4.4-.9s-2.3-1.4-3.2-2.4-1.5-2.3-2-3.8c-.4-1.5-.7-3.1-.7-5 0-1.8.2-3.5.7-5 .4-1.5 1.1-2.8 2-3.8.9-1.1 1.9-1.9 3.2-2.5s2.7-.9 4.4-.9zm0 23.7c1.6 0 3-.3 4.2-.8s2.2-1.3 3-2.4 1.4-2.2 1.8-3.7c.4-1.4.6-3 .6-4.7s-.2-3.3-.6-4.7-1-2.7-1.8-3.7-1.8-1.8-3-2.4-2.6-.9-4.2-.9-3 .3-4.2.9-2.2 1.4-3 2.4c-.8 1-1.4 2.3-1.8 3.7s-.6 3-.6 4.7c0 1.7.2 3.3.6 4.7s1 2.6 1.8 3.7c.8 1 1.8 1.8 3 2.4s2.6.8 4.2.8zM985 637v-23.5h.1c.2 0 .3.1.3.4l.1 6.5c.3-1.2.8-2.2 1.2-3.1.5-.9 1.1-1.7 1.8-2.3s1.4-1.1 2.3-1.4 1.8-.5 2.9-.5c.8 0 1.5.1 2.1.2.7.2 1.3.4 1.9.7l-.1.2-.1.1s-.1.1-.2.1-.2 0-.4-.1-.4-.2-.7-.3-.7-.2-1.1-.3-.9-.1-1.5-.1c-2.1 0-3.8.7-5.1 2.1s-2.3 3.3-3.1 5.9V637h-.4zM1009.7 645.1c0 .1-.1.2-.2.4-.1.1-.2.2-.4.2h-.3l4-9-10.2-23.1h.3c.1 0 .2 0 .3.1l.2.2 9.4 21.4c.1.1.1.3.2.4s.1.3.1.5c0-.2.1-.3.1-.5.1-.1.1-.3.2-.4l9.4-21.4c.1-.2.3-.3.4-.3h.3l-13.8 31.5z"/></g><g id="layer_2"><path class="st3" d="M525 13.8L313.7 153.5v240.1l212.1 131.8L736 395.5V154.3z" id="shape_1"/><path class="st1" d="M525.8 373.4l-145.7-93-.2 154.4 145.9 90.6 141.3-87.2.3-156.8z" id="shape_3"/><path class="st5" d="M525.8 452.4l-79-49.5-.1 73.6 79 49.2 77.4-47.8v-73.4z" id="shape_4"/><path class="st4" d="M525.8 11.7L314 153.2l211.8 137.5L736 154z" id="shape_2"/><path d="M525.8 290.7v235l210.3-130.3V154z" id="shape_5" class="st2"/></g></svg>